<svg xmlns="http://www.w3.org/2000/svg" viewBox="0 0 800 1000" width="800" height="1000" preserveAspectRatio="xMidYMid slice" aria-hidden="true">
  <defs>
    <linearGradient id="b5sky" x1="50%" y1="0%" x2="50%" y2="100%">
      <stop offset="0%" stop-color="#e6f3f5"/><stop offset="100%" stop-color="#f7fbfc"/>
    </linearGradient>
    <linearGradient id="b5sea" x1="50%" y1="0%" x2="50%" y2="100%">
      <stop offset="0%" stop-color="#edf4f5"/><stop offset="100%" stop-color="#dfeaec"/>
    </linearGradient>
    <linearGradient id="b5disc" x1="32.9%" y1="3%" x2="67.1%" y2="97%">
      <stop offset="0%" stop-color="#bed6da"/><stop offset="100%" stop-color="#e6f3f5"/>
    </linearGradient>
    <clipPath id="b5clip"><rect x="29" y="29" width="742" height="942"/></clipPath>
    <clipPath id="b5sky-c"><rect x="29" y="29" width="742" height="441"/></clipPath>
    <clipPath id="b5sea-c"><rect x="29" y="470" width="742" height="501"/></clipPath>
  </defs>
  <rect width="800" height="1000" fill="url(#b5sky)"/>
  <g clip-path="url(#b5sea-c)">
    <rect x="0" y="470" width="800" height="530" rx="0" fill="url(#b5sea)" stroke="none" stroke-width="1"/>
  </g>
  <g clip-path="url(#b5clip)">
    <circle cx="180" cy="349" r="220" fill="url(#b5disc)" stroke="none" stroke-width="1"/>
    <circle cx="180" cy="349" r="220" fill="none" stroke="#226f7b" stroke-width="2"/>

    <line x1="29" y1="470" x2="771" y2="470" stroke="#142023" stroke-width="1.5"/>
    <line x1="260" y1="504" x2="730" y2="504" stroke="#84adb4" stroke-width="1"/>
    <line x1="147" y1="544.6" x2="727.6" y2="544.6" stroke="#84adb4" stroke-width="1"/>
    <line x1="222" y1="585.2" x2="725.2" y2="585.2" stroke="#84adb4" stroke-width="1"/>
    <line x1="129.9" y1="625.8" x2="694" y2="625.8" stroke="#84adb4" stroke-width="1"/>
    <line x1="184" y1="666.4" x2="720.4" y2="666.4" stroke="#84adb4" stroke-width="1"/>
    <line x1="112.8" y1="707" x2="718" y2="707" stroke="#84adb4" stroke-width="1"/>
    <line x1="146" y1="747.6" x2="658" y2="747.6" stroke="#226f7b" stroke-width="2.5"/>
    <line x1="95.7" y1="788.2" x2="713.2" y2="788.2" stroke="#84adb4" stroke-width="1"/>
    <line x1="108" y1="828.8" x2="710.8" y2="828.8" stroke="#84adb4" stroke-width="1"/>
    <line x1="78.6" y1="869.4" x2="622" y2="869.4" stroke="#84adb4" stroke-width="1"/>
    <line x1="70" y1="910" x2="706" y2="910" stroke="#84adb4" stroke-width="1"/>
  </g>
    <rect x="28.5" y="28.5" width="743" height="943" rx="0" fill="none" stroke="#cfd9db" stroke-width="1"/>
</svg>
