<svg xmlns="http://www.w3.org/2000/svg" viewBox="0 0 800 1000" width="800" height="1000" preserveAspectRatio="xMidYMid slice" aria-hidden="true">
  <defs>
    <linearGradient id="b6sky" x1="50%" y1="0%" x2="50%" y2="100%">
      <stop offset="0%" stop-color="#e6f3f5"/><stop offset="100%" stop-color="#f7fbfc"/>
    </linearGradient>
    <linearGradient id="b6sea" x1="50%" y1="0%" x2="50%" y2="100%">
      <stop offset="0%" stop-color="#edf4f5"/><stop offset="100%" stop-color="#dfeaec"/>
    </linearGradient>
    <linearGradient id="b6disc" x1="32.9%" y1="3%" x2="67.1%" y2="97%">
      <stop offset="0%" stop-color="#bed6da"/><stop offset="100%" stop-color="#e6f3f5"/>
    </linearGradient>
    <clipPath id="b6clip"><rect x="29" y="29" width="742" height="942"/></clipPath>
    <clipPath id="b6sky-c"><rect x="29" y="29" width="742" height="531"/></clipPath>
    <clipPath id="b6sea-c"><rect x="29" y="560" width="742" height="411"/></clipPath>
  </defs>
  <rect width="800" height="1000" fill="url(#b6sky)"/>
  <g clip-path="url(#b6sea-c)">
    <rect x="0" y="560" width="800" height="440" rx="0" fill="url(#b6sea)" stroke="none" stroke-width="1"/>
  </g>
  <g clip-path="url(#b6clip)">
    <circle cx="400" cy="608" r="96" fill="url(#b6disc)" stroke="none" stroke-width="1"/>
    <circle cx="400" cy="608" r="96" fill="none" stroke="#226f7b" stroke-width="2"/>

    <line x1="29" y1="560" x2="771" y2="560" stroke="#142023" stroke-width="1.5"/>
    <line x1="260" y1="594" x2="730" y2="594" stroke="#84adb4" stroke-width="1"/>
    <line x1="149.8" y1="615.1" x2="728.4" y2="615.1" stroke="#84adb4" stroke-width="1"/>
    <line x1="234.7" y1="636.1" x2="726.8" y2="636.1" stroke="#84adb4" stroke-width="1"/>
    <line x1="138.4" y1="657.2" x2="706" y2="657.2" stroke="#84adb4" stroke-width="1"/>
    <line x1="209.3" y1="678.3" x2="723.6" y2="678.3" stroke="#84adb4" stroke-width="1"/>
    <line x1="127" y1="699.3" x2="722" y2="699.3" stroke="#84adb4" stroke-width="1"/>
    <line x1="184" y1="720.4" x2="682" y2="720.4" stroke="#84adb4" stroke-width="1"/>
    <line x1="115.6" y1="741.5" x2="718.8" y2="741.5" stroke="#84adb4" stroke-width="1"/>
    <line x1="158.7" y1="762.5" x2="717.2" y2="762.5" stroke="#84adb4" stroke-width="1"/>
    <line x1="104.2" y1="783.6" x2="658" y2="783.6" stroke="#226f7b" stroke-width="2.5"/>
    <line x1="133.3" y1="804.7" x2="714" y2="804.7" stroke="#84adb4" stroke-width="1"/>
    <line x1="92.8" y1="825.7" x2="712.4" y2="825.7" stroke="#84adb4" stroke-width="1"/>
    <line x1="108" y1="846.8" x2="634" y2="846.8" stroke="#84adb4" stroke-width="1"/>
    <line x1="81.4" y1="867.9" x2="709.2" y2="867.9" stroke="#84adb4" stroke-width="1"/>
    <line x1="82.7" y1="888.9" x2="707.6" y2="888.9" stroke="#84adb4" stroke-width="1"/>
    <line x1="70" y1="910" x2="610" y2="910" stroke="#84adb4" stroke-width="1"/>
  </g>
    <rect x="28.5" y="28.5" width="743" height="943" rx="0" fill="none" stroke="#cfd9db" stroke-width="1"/>
</svg>
