<svg xmlns="http://www.w3.org/2000/svg" viewBox="0 0 800 1000" width="800" height="1000" preserveAspectRatio="xMidYMid slice" aria-hidden="true">
  <defs>
    <linearGradient id="r5bg" x1="93.3%" y1="75%" x2="6.7%" y2="25%">
      <stop offset="0%" stop-color="#f7fbfc"/><stop offset="100%" stop-color="#edf4f5"/>
    </linearGradient>
    <linearGradient id="r5bar" x1="0%" y1="50%" x2="100%" y2="50%">
      <stop offset="0%" stop-color="#bed6da"/><stop offset="100%" stop-color="#e6f3f5"/>
    </linearGradient>
    <clipPath id="r5clip"><rect x="29" y="29" width="742" height="942"/></clipPath>
  </defs>
  <rect width="800" height="1000" fill="url(#r5bg)"/>
  <g clip-path="url(#r5clip)">
    <rect x="120" y="190" width="560" height="40" rx="20" fill="url(#r5bar)" stroke="#226f7b" stroke-width="1.5"/>
    <circle cx="145" cy="380" r="50" fill="none" stroke="#84adb4" stroke-width="1"/>
    <circle cx="315" cy="380" r="50" fill="none" stroke="#84adb4" stroke-width="1"/>
    <circle cx="485" cy="380" r="50" fill="none" stroke="#84adb4" stroke-width="1"/>
    <circle cx="655" cy="380" r="50" fill="none" stroke="#84adb4" stroke-width="1"/>
    <circle cx="230" cy="518" r="50" fill="none" stroke="#84adb4" stroke-width="1"/>
    <circle cx="400" cy="518" r="50" fill="none" stroke="#84adb4" stroke-width="1"/>
    <circle cx="570" cy="518" r="50" fill="none" stroke="#84adb4" stroke-width="1"/>
    <circle cx="145" cy="656" r="50" fill="none" stroke="#84adb4" stroke-width="1"/>
    <circle cx="315" cy="656" r="50" fill="#e6f3f5" stroke="#226f7b" stroke-width="2"/>
    <circle cx="485" cy="656" r="50" fill="none" stroke="#84adb4" stroke-width="1"/>
    <circle cx="655" cy="656" r="50" fill="none" stroke="#84adb4" stroke-width="1"/>
    <circle cx="230" cy="794" r="50" fill="none" stroke="#84adb4" stroke-width="1"/>
    <circle cx="400" cy="794" r="50" fill="none" stroke="#84adb4" stroke-width="1"/>
    <circle cx="570" cy="794" r="50" fill="none" stroke="#84adb4" stroke-width="1"/>
    <circle cx="145" cy="932" r="50" fill="none" stroke="#84adb4" stroke-width="1"/>
    <circle cx="315" cy="932" r="50" fill="none" stroke="#84adb4" stroke-width="1"/>
    <circle cx="485" cy="932" r="50" fill="none" stroke="#84adb4" stroke-width="1"/>
    <circle cx="655" cy="932" r="50" fill="none" stroke="#84adb4" stroke-width="1"/>
  </g>
    <rect x="28.5" y="28.5" width="743" height="943" rx="0" fill="none" stroke="#cfd9db" stroke-width="1"/>
</svg>
